<svg width="40" height="40" viewBox="0 0 40 40" fill="none" xmlns="http://www.w3.org/2000/svg">
<path d="M32.7657 17.1875L28.7032 3.39062C28.6256 3.13221 28.4665 2.90583 28.2497 2.74531C28.0328 2.58478 27.7698 2.49873 27.5 2.5H12.5C12.2302 2.49873 11.9673 2.58478 11.7504 2.74531C11.5336 2.90583 11.3745 3.13221 11.2969 3.39062L7.23441 17.1875C6.88797 18.3338 6.9713 19.567 7.46879 20.6562C8.47191 22.8723 10.0443 24.783 12.026 26.1937C14.0076 27.6045 16.3277 28.4649 18.75 28.6875V35H13.75C13.4185 35 13.1006 35.1317 12.8662 35.3661C12.6317 35.6005 12.5 35.9185 12.5 36.25C12.5 36.5815 12.6317 36.8995 12.8662 37.1339C13.1006 37.3683 13.4185 37.5 13.75 37.5H26.25C26.5816 37.5 26.8995 37.3683 27.1339 37.1339C27.3683 36.8995 27.5 36.5815 27.5 36.25C27.5 35.9185 27.3683 35.6005 27.1339 35.3661C26.8995 35.1317 26.5816 35 26.25 35H21.25V28.6875C23.6724 28.4649 25.9924 27.6045 27.9741 26.1937C29.9557 24.783 31.5282 22.8723 32.5313 20.6562C33.0288 19.567 33.1121 18.3338 32.7657 17.1875ZM20.5625 15.125C16.4688 13.0937 13.1875 13.0937 10.8907 13.6406L13.4375 5H26.5625L29.8125 16.0156C28.1407 16.7187 24.9688 17.3281 20.5625 15.125Z" fill="#C62525"/>
</svg>
