<svg width="221" height="47" viewBox="0 0 221 47" fill="none" xmlns="http://www.w3.org/2000/svg">
<path d="M12.359 1.536L19.751 1.68C22.215 1.68 23.911 1.968 24.839 2.544C24.743 3.44 24.407 4.032 23.831 4.32C23.255 4.608 22.423 4.752 21.335 4.752L10.967 4.608C8.343 4.608 6.135 4.688 4.343 4.848C3.991 6.64 3.815 9.216 3.815 12.576L3.863 14.736C3.863 15.664 3.847 16.656 3.815 17.712C5.287 17.968 7.207 18.096 9.575 18.096L15.287 18.048C17.463 18.048 18.711 18.16 19.031 18.384C19.351 18.608 19.511 18.848 19.511 19.104C19.511 20.32 17.959 20.928 14.855 20.928L3.959 20.592C3.927 21.36 3.895 22.672 3.863 24.528C3.799 28.4 3.655 31.328 3.431 33.312C5.479 33.44 6.951 33.504 7.847 33.504C8.743 33.504 9.671 33.488 10.631 33.456C11.591 33.424 13.383 33.328 16.007 33.168C18.631 33.008 20.583 32.928 21.863 32.928C23.175 32.928 24.071 33.024 24.551 33.216C25.031 33.376 25.271 33.76 25.271 34.368C25.271 34.752 25.159 35.024 24.935 35.184C24.743 35.312 24.567 35.424 24.407 35.52C24.247 35.584 24.039 35.648 23.783 35.712C23.559 35.744 23.351 35.776 23.159 35.808C22.999 35.84 22.759 35.872 22.439 35.904C22.151 35.904 21.911 35.92 21.719 35.952C21.559 35.952 21.335 35.952 21.047 35.952H20.375C14.103 36.24 10.087 36.384 8.327 36.384C3.047 36.384 0.407 35.648 0.407 34.176C0.343 31.2 0.311 28.368 0.311 25.68C0.311 16.816 0.599 9.44 1.175 3.552C1.847 2.496 3.799 1.888 7.031 1.728C9.047 1.6 10.823 1.536 12.359 1.536ZM48.6538 34.656C48.0778 35.264 47.4218 35.568 46.6858 35.568C45.3098 35.568 44.2858 34.832 43.6138 33.36C42.9418 31.888 42.5418 30.096 42.4138 27.984C42.3178 25.872 42.2538 23.76 42.2218 21.648C42.1898 19.536 42.0138 17.744 41.6938 16.272C41.4058 14.8 40.8458 14.064 40.0138 14.064C38.8938 14.064 37.9338 15.072 37.1338 17.088C36.3658 19.104 35.8218 21.344 35.5018 23.808C34.6058 30.688 33.7418 34.544 32.9098 35.376C32.3338 35.664 31.8378 35.808 31.4218 35.808C31.0058 35.808 30.6538 35.76 30.3658 35.664C29.6938 32.72 29.2618 27.648 29.0698 20.448C29.0058 16.864 28.9418 14.544 28.8778 13.488C29.5498 13.04 30.1258 12.816 30.6058 12.816C31.0858 12.816 31.4698 12.864 31.7578 12.96C31.9178 14.336 31.9978 17.152 31.9978 21.408C32.0298 25.664 32.0618 28.112 32.0938 28.752C32.2538 28.08 32.4458 26.992 32.6698 25.488C32.9258 23.984 33.1498 22.752 33.3418 21.792C33.5338 20.8 33.8378 19.648 34.2538 18.336C34.6698 17.024 35.1338 15.984 35.6458 15.216C36.1578 14.416 36.8618 13.744 37.7578 13.2C38.6538 12.624 39.6618 12.336 40.7818 12.336C42.2858 12.336 43.3738 13.024 44.0458 14.4C44.7498 15.744 45.1338 17.424 45.1978 19.44C45.2618 21.456 45.2938 23.504 45.2938 25.584C45.3258 27.664 45.5818 29.568 46.0618 31.296C46.5738 33.024 47.4378 34.144 48.6538 34.656ZM54.2019 26.256C54.1379 26.896 54.1059 27.328 54.1059 27.552C54.1059 29.472 54.6819 30.96 55.8339 32.016C57.0179 33.072 58.4099 33.6 60.0099 33.6C61.6099 33.6 62.9059 33.376 63.8979 32.928C64.9219 32.48 65.6579 32 66.1059 31.488C67.2579 30.048 68.3139 29.328 69.2739 29.328C69.6259 29.328 70.0419 29.424 70.5219 29.616C70.2019 31.184 68.9859 32.624 66.8739 33.936C64.7939 35.216 62.1699 35.856 59.0019 35.856C56.7619 35.856 54.8259 35.152 53.1939 33.744C51.5939 32.304 50.7939 30.352 50.7939 27.888C50.7939 25.424 51.2739 23.04 52.2339 20.736C53.2259 18.4 54.6339 16.416 56.4579 14.784C58.3139 13.12 60.1859 12.288 62.0739 12.288C63.9939 12.288 65.5299 12.688 66.6819 13.488C67.8659 14.256 68.4579 15.392 68.4579 16.896C68.4579 19.68 67.2099 21.984 64.7139 23.808C62.2499 25.6 59.6259 26.496 56.8419 26.496C56.1059 26.496 55.2259 26.416 54.2019 26.256ZM57.8499 24.672C59.3539 24.672 60.6979 24.192 61.8819 23.232C63.0659 22.272 63.8979 21.264 64.3779 20.208C64.8899 19.152 65.1459 18.192 65.1459 17.328C65.1459 16.464 64.8099 15.712 64.1379 15.072C63.4659 14.4 62.6819 14.064 61.7859 14.064C60.1859 14.064 58.6979 15.168 57.3219 17.376C55.9779 19.584 55.0179 21.872 54.4419 24.24C55.8499 24.528 56.9859 24.672 57.8499 24.672ZM79.1454 31.296L79.2894 34.032C79.2894 34.736 79.0814 35.232 78.6654 35.52C78.2814 35.776 77.8814 35.904 77.4654 35.904C77.0814 35.904 76.6814 35.84 76.2654 35.712C75.5614 32 75.0174 27.376 74.6334 21.84C74.2814 16.304 74.0734 13.168 74.0094 12.432C74.4894 11.984 74.9854 11.76 75.4974 11.76C76.0414 11.76 76.5214 11.824 76.9374 11.952C77.0654 12.88 77.1614 14.928 77.2254 18.096C77.2894 21.264 77.3694 23.248 77.4654 24.048C77.9134 21.36 78.7134 18.848 79.8654 16.512C80.5054 15.2 81.3374 14.16 82.3614 13.392C83.4174 12.592 84.5374 12.192 85.7214 12.192C86.9374 12.192 88.0414 12.736 89.0334 13.824C90.0574 14.88 90.5694 15.84 90.5694 16.704C90.5694 17.024 90.3774 17.28 89.9934 17.472C89.6094 17.632 89.1774 17.712 88.6974 17.712C88.2494 17.712 87.8974 17.536 87.6414 17.184C87.3854 16.832 87.2094 16.448 87.1134 16.032C87.0174 15.584 86.8094 15.184 86.4894 14.832C86.1694 14.48 85.7374 14.304 85.1934 14.304C83.7534 14.304 82.5214 15.6 81.4974 18.192C79.9294 22.064 79.1454 26.432 79.1454 31.296ZM101.685 12C104.597 12 106.613 13.184 107.733 15.552C108.341 16.8 108.837 17.984 109.221 19.104C109.605 20.224 109.861 21.76 109.989 23.712C110.181 26.688 110.277 30.08 110.277 33.888C110.277 37.664 109.365 40.672 107.541 42.912C105.749 45.184 103.109 46.32 99.6211 46.32C96.1651 46.32 93.2851 45.2 90.9811 42.96C91.6211 42.32 92.3091 42 93.0451 42C93.8131 42 94.8531 42.32 96.1651 42.96C97.5091 43.632 98.9331 43.968 100.437 43.968C101.941 43.968 103.189 43.616 104.181 42.912C105.173 42.24 105.909 41.28 106.389 40.032C107.189 37.824 107.589 35.104 107.589 31.872C107.589 31.392 107.541 29.616 107.445 26.544C106.581 29.168 105.349 31.344 103.749 33.072C102.149 34.768 100.341 35.616 98.3251 35.616C96.3091 35.616 94.8211 34.72 93.8611 32.928C92.9331 31.104 92.4691 29.04 92.4691 26.736C92.4691 24.432 92.7891 22.192 93.4291 20.016C94.0691 17.808 95.1091 15.92 96.5491 14.352C97.9891 12.784 99.7011 12 101.685 12ZM96.5971 19.296C96.1811 20.704 95.8771 22.032 95.6851 23.28C95.4931 24.528 95.3971 25.792 95.3971 27.072C95.3971 28.32 95.6531 29.712 96.1651 31.248C96.7091 32.784 97.4931 33.552 98.5171 33.552C100.533 33.552 102.325 32.048 103.893 29.04C105.461 26 106.245 22.944 106.245 19.872C106.245 18.816 105.749 17.632 104.757 16.32C103.797 14.976 102.581 14.304 101.109 14.304C100.085 14.304 99.1731 14.784 98.3731 15.744C97.6051 16.704 97.0131 17.888 96.5971 19.296ZM119.053 0.671997C119.021 1.408 119.005 2.224 119.005 3.12C119.005 4.016 119.053 4.944 119.148 5.904C118.701 6.416 118.093 6.672 117.325 6.672C116.365 6.672 115.885 5.904 115.885 4.368C115.885 4.304 115.885 4.064 115.885 3.648C115.885 3.232 115.885 2.864 115.885 2.544C115.917 2.192 115.981 1.792 116.077 1.344C116.301 0.575997 116.797 0.191998 117.565 0.191998C118.333 0.191998 118.829 0.351997 119.053 0.671997ZM115.98 24.192C115.98 17.92 116.301 14.304 116.941 13.344C117.165 12.992 117.437 12.816 117.757 12.816C118.077 12.816 118.605 12.992 119.341 13.344C119.181 16.064 119.101 19.024 119.101 22.224C119.101 22.224 119.133 25.76 119.197 32.832C119.197 33.824 118.973 34.528 118.525 34.944C118.109 35.328 117.709 35.52 117.325 35.52C116.973 35.52 116.605 35.424 116.221 35.232C116.061 31.072 115.98 27.392 115.98 24.192ZM127.702 26.256C127.638 26.896 127.606 27.328 127.606 27.552C127.606 29.472 128.182 30.96 129.334 32.016C130.518 33.072 131.91 33.6 133.51 33.6C135.11 33.6 136.406 33.376 137.398 32.928C138.422 32.48 139.158 32 139.606 31.488C140.758 30.048 141.814 29.328 142.774 29.328C143.126 29.328 143.542 29.424 144.022 29.616C143.702 31.184 142.486 32.624 140.374 33.936C138.294 35.216 135.67 35.856 132.502 35.856C130.262 35.856 128.326 35.152 126.694 33.744C125.094 32.304 124.294 30.352 124.294 27.888C124.294 25.424 124.774 23.04 125.734 20.736C126.726 18.4 128.134 16.416 129.958 14.784C131.814 13.12 133.686 12.288 135.574 12.288C137.494 12.288 139.03 12.688 140.182 13.488C141.366 14.256 141.958 15.392 141.958 16.896C141.958 19.68 140.71 21.984 138.214 23.808C135.75 25.6 133.126 26.496 130.342 26.496C129.606 26.496 128.726 26.416 127.702 26.256ZM131.35 24.672C132.854 24.672 134.198 24.192 135.382 23.232C136.566 22.272 137.398 21.264 137.878 20.208C138.39 19.152 138.646 18.192 138.646 17.328C138.646 16.464 138.31 15.712 137.638 15.072C136.966 14.4 136.182 14.064 135.286 14.064C133.686 14.064 132.198 15.168 130.822 17.376C129.478 19.584 128.518 21.872 127.942 24.24C129.35 24.528 130.486 24.672 131.35 24.672Z" fill="black"/>
<path d="M156.514 3.024C156.802 2.256 157.474 1.872 158.53 1.872C158.85 1.872 159.138 1.936 159.394 2.064C160.482 4.464 161.73 7.84 163.138 12.192C164.546 16.544 165.97 20.608 167.41 24.384C168.882 28.16 170.514 31.344 172.306 33.936C174.066 33.424 175.954 29.408 177.97 21.888C178.802 18.784 179.65 15.696 180.514 12.624C181.378 9.552 182.354 6.96 183.442 4.848C184.53 2.736 185.65 1.68 186.802 1.68C187.25 1.68 187.73 1.808 188.242 2.064C187.41 2.864 186.53 4.64 185.602 7.392C184.674 10.144 183.762 13.152 182.866 16.416C181.97 19.648 181.01 22.864 179.986 26.064C178.994 29.232 177.794 31.872 176.386 33.984C175.01 36.096 173.538 37.152 171.97 37.152C169.794 37.152 167.298 33.472 164.482 26.112C162.978 22.272 161.842 19.248 161.074 17.04C160.306 14.8 159.41 12.096 158.386 8.928C157.394 5.728 156.77 3.76 156.514 3.024ZM194.428 0.671997C194.396 1.408 194.38 2.224 194.38 3.12C194.38 4.016 194.428 4.944 194.523 5.904C194.076 6.416 193.468 6.672 192.7 6.672C191.74 6.672 191.26 5.904 191.26 4.368C191.26 4.304 191.26 4.064 191.26 3.648C191.26 3.232 191.26 2.864 191.26 2.544C191.292 2.192 191.356 1.792 191.452 1.344C191.676 0.575997 192.172 0.191998 192.94 0.191998C193.708 0.191998 194.204 0.351997 194.428 0.671997ZM191.355 24.192C191.355 17.92 191.676 14.304 192.316 13.344C192.54 12.992 192.812 12.816 193.132 12.816C193.452 12.816 193.98 12.992 194.716 13.344C194.556 16.064 194.476 19.024 194.476 22.224C194.476 22.224 194.508 25.76 194.572 32.832C194.572 33.824 194.348 34.528 193.9 34.944C193.484 35.328 193.084 35.52 192.7 35.52C192.348 35.52 191.98 35.424 191.596 35.232C191.436 31.072 191.355 27.392 191.355 24.192ZM220.357 34.656C219.781 35.264 219.125 35.568 218.389 35.568C217.013 35.568 215.989 34.832 215.317 33.36C214.645 31.888 214.245 30.096 214.117 27.984C214.021 25.872 213.957 23.76 213.925 21.648C213.893 19.536 213.717 17.744 213.397 16.272C213.109 14.8 212.549 14.064 211.717 14.064C210.597 14.064 209.637 15.072 208.837 17.088C208.069 19.104 207.525 21.344 207.205 23.808C206.309 30.688 205.445 34.544 204.613 35.376C204.037 35.664 203.541 35.808 203.125 35.808C202.709 35.808 202.357 35.76 202.069 35.664C201.397 32.72 200.965 27.648 200.773 20.448C200.709 16.864 200.645 14.544 200.581 13.488C201.253 13.04 201.829 12.816 202.309 12.816C202.789 12.816 203.173 12.864 203.461 12.96C203.621 14.336 203.701 17.152 203.701 21.408C203.733 25.664 203.765 28.112 203.797 28.752C203.957 28.08 204.149 26.992 204.373 25.488C204.629 23.984 204.853 22.752 205.045 21.792C205.237 20.8 205.541 19.648 205.957 18.336C206.373 17.024 206.837 15.984 207.349 15.216C207.861 14.416 208.565 13.744 209.461 13.2C210.357 12.624 211.365 12.336 212.485 12.336C213.989 12.336 215.077 13.024 215.749 14.4C216.453 15.744 216.837 17.424 216.901 19.44C216.965 21.456 216.997 23.504 216.997 25.584C217.029 27.664 217.285 29.568 217.765 31.296C218.277 33.024 219.141 34.144 220.357 34.656Z" fill="#C62525"/>
</svg>
