<svg width="51" height="46" viewBox="0 0 51 46" fill="none" xmlns="http://www.w3.org/2000/svg">
<path d="M25.5012 21.5413C17.022 21.5413 10.1471 25.6562 10.1471 30.732C10.1471 35.8093 17.022 39.9249 25.5012 39.9249C33.9804 39.9249 40.8548 35.8093 40.8548 30.732C40.8548 25.6563 33.9804 21.5413 25.5012 21.5413Z" fill="#CC1935"/>
<path d="M46.8245 9.66363L36.4362 16.3794C36.5935 16.3722 36.75 16.365 36.9073 16.365C37.7364 16.365 38.4384 16.4678 39.0528 16.6806C39.6707 16.8957 40.1232 17.194 40.4781 17.5329L48.2111 12.4376C49.0402 11.8901 49.6787 11.261 50.1094 10.5918C50.5392 9.92202 50.7612 9.21171 50.7612 8.49485C50.7612 7.8142 50.5587 7.12563 50.1529 6.46672L50.1094 6.39359L50.0367 6.2749C49.9339 6.47112 49.8166 6.66878 49.6787 6.87084C49.088 7.73459 48.1687 8.6528 46.8462 9.64692L46.8245 9.66363Z" fill="#CC1935"/>
<path d="M2.78357 12.4375L10.5207 17.5342C10.8758 17.1953 11.3269 16.8963 11.945 16.6812C12.563 16.4676 13.2656 16.3649 14.0947 16.3649C14.2513 16.3649 14.4086 16.3721 14.5645 16.3794L4.17616 9.66355L4.1544 9.64684C2.83129 8.65271 1.91214 7.73451 1.32014 6.87075C1.18163 6.66726 1.06383 6.46736 0.960282 6.27051L0.8848 6.39359L0.841281 6.46673C0.436107 7.12564 0.238922 7.8142 0.238922 8.49486C0.238922 9.21172 0.454115 9.92203 0.8848 10.5918C1.31473 11.2608 1.95326 11.8901 2.78357 12.4375Z" fill="#CC1935"/>
<path d="M5.57969 8.94736L17.596 16.7145C18.0464 16.7695 18.4672 16.8101 18.8253 16.8101C18.9964 16.8101 19.1416 16.8015 19.2564 16.7834C19.7608 16.7022 20.4943 16.2924 21.1418 15.9304C21.4345 15.7668 21.7376 15.5973 22.0544 15.4359L8.35589 6.3639L10.4888 5.21624L12.4057 6.51161H38.5943L40.5046 5.21624L42.6375 6.3639L28.945 15.4344C29.2644 15.5973 29.5685 15.7675 29.863 15.9319C30.51 16.2933 31.2418 16.703 31.743 16.7826C31.8591 16.8015 32.0048 16.8101 32.1759 16.8101C32.534 16.8101 32.9547 16.7696 33.404 16.7145L45.4202 8.94736C46.6483 8.02125 47.4652 7.19361 47.9732 6.45222C48.4831 5.70652 48.6851 5.04832 48.6862 4.43936C48.6862 4.29597 48.6693 4.15689 48.6474 4.01871L48.5361 3.83696C47.8291 2.68561 46.5509 1.72186 44.9471 1.05575C43.3445 0.386598 41.396 0 39.3503 0H11.6436C9.59782 0 7.65013 0.386598 6.04534 1.05566C4.4422 1.72177 3.16381 2.68552 2.457 3.83687L2.35421 4.00479C2.33065 4.14746 2.31369 4.29148 2.31369 4.43927C2.31369 5.04823 2.51688 5.70643 3.02665 6.45213C3.53446 7.1937 4.35157 8.02134 5.57969 8.94736Z" fill="#CC1935"/>
<path d="M47.258 34.2244C47.7883 33.0362 51 32.0203 51 30.7322C51 29.4455 47.7883 28.4296 47.258 27.2421C46.7091 26.0141 48.6266 24.1727 47.5887 23.0975C46.533 22.0062 42.9028 22.0845 41.4238 21.1997C39.9446 20.3155 40.0759 18.1411 38.2532 17.509C36.4579 16.8871 33.3829 18.0347 31.3306 17.7067C29.3508 17.3902 27.6503 15.4663 25.5 15.4663C23.3527 15.4663 21.6528 17.3902 19.6694 17.7067C17.6201 18.0347 14.5451 16.8871 12.7466 17.509C10.9277 18.1411 11.0558 20.3155 9.57981 21.1997C8.10018 22.0845 4.46772 22.0062 3.41487 23.0975C2.37402 24.1727 4.29469 26.0141 3.74561 27.2421C3.21468 28.4296 0 29.4455 0 30.7322C0 32.0204 3.21468 33.0362 3.74561 34.2244C4.29469 35.4524 2.37417 37.293 3.41487 38.369C4.46772 39.4587 8.10018 39.3806 9.57981 40.2669C10.2595 40.6738 10.5964 41.3522 10.9423 42.0271C11.2349 42.602 11.5331 43.1755 12.0458 43.5766C12.243 43.733 12.4728 43.8627 12.7466 43.9575C14.542 44.5795 17.62 43.4304 19.6694 43.7591C20.9368 43.9619 22.0881 44.8185 23.3134 45.4129C24.0058 45.7474 24.7254 46.0001 25.5 46.0001C26.2752 46.0001 26.9942 45.7474 27.6896 45.4128C28.8918 44.8299 30.0219 43.9951 31.2562 43.7736C31.2803 43.7678 31.3069 43.7626 31.3306 43.759C33.3829 43.4304 36.4579 44.5795 38.2532 43.9574C38.5278 43.8626 38.7606 43.7301 38.9572 43.5751C40.0729 42.6982 40.1678 41.0162 41.4238 40.2668C42.9028 39.3806 46.533 39.4587 47.5887 38.3689C48.6264 37.2929 46.7089 35.4524 47.258 34.2244ZM25.5 40.9105C25.1687 40.9105 24.8409 40.9062 24.5162 40.8932C20.4272 40.7534 16.7257 39.7505 13.9162 38.1808C10.5818 36.3221 8.5004 33.6741 8.5004 30.7322C8.5004 25.1119 16.1114 20.5545 25.5 20.5545C34.8886 20.5545 42.5008 25.1119 42.5008 30.7322C42.5008 36.3546 34.8886 40.9105 25.5 40.9105Z" fill="#CC1935"/>
</svg>
