<svg width="17" height="39" viewBox="0 0 17 39" fill="none" xmlns="http://www.w3.org/2000/svg">
<path d="M3.54167 38.75C2.83442 38.75 2.15615 38.5498 1.65605 38.1935C1.15595 37.8372 0.875 37.3539 0.875 36.85V17.85C0.875 14.05 3.54167 10.725 6.20833 10.25V1.7C6.20833 1.44804 6.34881 1.20641 6.59886 1.02825C6.84891 0.850089 7.18804 0.75 7.54167 0.75H10.2083C10.562 0.75 10.9011 0.850089 11.1511 1.02825C11.4012 1.20641 11.5417 1.44804 11.5417 1.7V10.25C14.2083 10.725 16.875 14.05 16.875 17.85V36.85C16.875 37.3539 16.594 37.8372 16.094 38.1935C15.5939 38.5498 14.9156 38.75 14.2083 38.75H3.54167Z" fill="#C62525"/>
</svg>
